<?xml version="1.0" encoding="utf-8"?>
<!-- Generator: Adobe Illustrator 24.2.3, SVG Export Plug-In . SVG Version: 6.00 Build 0)  -->
<svg version="1.1" id="OBJECTS" xmlns="http://www.w3.org/2000/svg" xmlns:xlink="http://www.w3.org/1999/xlink" x="0px" y="0px"
	 viewBox="0 0 143.9 40.9" style="enable-background:new 0 0 143.9 40.9;" xml:space="preserve">
<style type="text/css">
	.st0{fill:#18A2B6;}
	.st1{fill:#C91F43;}
	.st2{fill:#343434;}
</style>
<g>
	<g>
		<path class="st0" d="M80.3,20.8c0,8.5-5.9,13.5-12.9,13.5c-8,0-14.3-6.3-14.3-14c0-7.7,6.3-14.1,14.1-14.1c3.5,0,7.3,1.6,9.9,4.2
			l-0.7,1.1c-1.1,1.7-3.3,2.3-5.1,1.3c-1.3-0.7-2.8-1.1-4.2-1.1c-4.2,0-8.5,3.6-8.5,8.6c0,4.7,3.7,8.6,9,8.6c3.9,0,6.6-2,6.8-5.2h-7
			v-2.1c0-1.6,1.3-2.9,2.9-2.9h8c1.1,0,1.9,0.9,2,1.9C80.3,20.5,80.3,20.7,80.3,20.8z"/>
		<path class="st0" d="M84.7,13.3h3c1.4,0,2.5,1.1,2.5,2.5v17.9h-5.4V13.3z"/>
		<path class="st0" d="M110.9,12h-4.2v21.7h-5.5V12h-6.7V9.1c0-1.4,1.1-2.5,2.5-2.5h16.3v2.9C113.4,10.9,112.3,12,110.9,12z"/>
		<path class="st0" d="M134.2,30.8v3h-16.3V6.6h3c1.4,0,2.5,1.1,2.5,2.5v19.2h8.4C133.1,28.3,134.2,29.4,134.2,30.8z"/>
	</g>
	<circle class="st1" cx="87.4" cy="9.5" r="2.8"/>
	<rect x="46.4" y="3" class="st2" width="0.5" height="34.4"/>
	<path class="st0" d="M30.5,35.7C30.5,35.7,30.4,35.6,30.5,35.7c-2.9,2.2-6,2-9.2,1.2c-4.3-1.1-7.6-3.6-9.6-7.7
		c-1.4-2.8-1.9-5.9-1.8-9.1c1.5-0.1,2.8,0.3,4.1,0.7c3.1,1.1,4.5,3.4,4.9,6.6c0.3,2.2,1.1,4.1,2.3,6c1.7,2.7,5,3.5,7.7,1.8
		c0.8-0.5,1.2-1,1.2-2.1c-0.1-2.7,0-5.4-0.1-8.1c0-0.8-0.2-1.7-0.5-2.5c-0.3-0.9-1-1.4-2-1.6c-0.2,0-0.3-0.2-0.5-0.3
		c0.2-0.1,0.3-0.3,0.5-0.3c2.2,0,4.4-0.1,6.6,0c2.3,0.1,3.8,2,3.8,4.3c0,2.8,0,5.7,0.1,8.5c0,1.5,0.4,3,2.1,3.6
		c0.1,0,0.2,0.2,0.2,0.3c0,0.1-0.2,0.2-0.3,0.2c-2.4,0-4.8,0-7.2-0.2c-0.8-0.1-1.6-0.8-2.4-1.3C30.4,35.8,30.5,35.7,30.5,35.7z"/>
	<path class="st0" d="M29.6,4.1C29,4.1,28.5,4.4,28,4.2c-3.2-0.8-6,1.2-7.4,3.7c-1.2,2.3-1.8,4.8-2.1,7.3c-0.2,1.5-0.3,3-0.4,4.5
		c-2.2,0.5-5.2-0.9-6.5-2.9c-1.1-1.6-1.2-3.3-0.4-5c1.6-3.5,4.1-5.8,7.6-7.4c2.3-1,4.7-1.6,7.2-1.4c1.2,0.1,2.4,0.4,3.7,0.7
		C29.6,3.8,29.6,3.9,29.6,4.1z"/>
	<path class="st1" d="M38.8,9c-0.1,2.8-2.2,4.9-5,4.8c-2.7,0-4.8-2.3-4.7-5.1c0.1-2.5,2.4-4.8,5.2-4.6C36.8,4.2,38.9,6.3,38.8,9z"/>
</g>
</svg>
